<svg version="1.2" xmlns="http://www.w3.org/2000/svg" viewBox="0 0 28 29" width="400" height="414">
	<title>image</title>
	<style>
		.s0 { fill: none;stroke: #ffffff;stroke-linecap: round;stroke-linejoin: round;stroke-width: 2 } 
	</style>
	<path id="Layer" fill-rule="evenodd" class="s0" d="m23.7 27.2c1.1 0 2-0.8 2-1.9 0-1-0.9-1.9-2-1.9-1 0-1.9 0.9-1.9 1.9 0 1.1 0.9 1.9 1.9 1.9z"/>
	<path id="Layer" fill-rule="evenodd" class="s0" d="m10.7 27.2c1.1 0 2-0.8 2-1.9 0-1-0.9-1.9-2-1.9-1 0-1.9 0.9-1.9 1.9 0 1.1 0.9 1.9 1.9 1.9z"/>
	<path id="Layer" fill-rule="evenodd" class="s0" d="m4.9 4.2h22.1l-2.6 14.1h-16.9zm-3.9-2.6c2.6 0 3.7 1.7 3.9 2.6z"/>
	<path id="Layer" fill-rule="evenodd" class="s0" d="m24.4 18.3h-16.9-2.3c-2.3 0-3.5 1-3.5 2.5 0 1.6 1.2 2.6 3.5 2.6h18.6"/>
</svg>