<svg version="1.2" xmlns="http://www.w3.org/2000/svg" viewBox="0 0 132 66" width="500" height="250">
	<title>image</title>
	<style>
		.s0 { fill: none;stroke: #c6922b } 
		.s1 { fill: #c6922b } 
	</style>
	<path id="Layer" class="s0" d="m0.5 18c0-9.7 7.8-17.5 17.5-17.5h96c9.7 0 17.5 7.8 17.5 17.5v30c0 9.7-7.8 17.5-17.5 17.5h-96c-9.7 0-17.5-7.8-17.5-17.5z"/>
	<path id="Layer" fill-rule="evenodd" class="s1" d="m31.4 25.5l3.3 10.6h0.1l3.2-10.6h4l-4.9 14.5h-4.7l-4.9-14.5zm12.1 14.5v-10.9h3.5v10.9zm1.7-12.2q-0.7 0-1.2-0.5-0.6-0.5-0.6-1.1 0-0.7 0.6-1.2 0.5-0.5 1.2-0.5 0.7 0 1.3 0.5 0.5 0.5 0.5 1.2 0 0.6-0.5 1.1-0.6 0.5-1.3 0.5zm9.1 12.4q-1.8 0-3-0.7-1.2-0.7-1.9-1.9-0.7-1.3-0.7-3 0-1.7 0.7-3 0.7-1.2 1.9-1.9 1.2-0.8 2.8-0.8 1.2 0 2.2 0.4 0.9 0.4 1.6 1.1 0.7 0.7 1.1 1.7 0.4 1.1 0.4 2.4v0.9h-7.2v0.1q0 0.6 0.2 1.1 0.3 0.5 0.8 0.8 0.4 0.3 1.1 0.3 0.5 0 0.9-0.1 0.3-0.2 0.6-0.4 0.3-0.3 0.4-0.6l3.2 0.1q-0.2 1-0.9 1.8-0.6 0.8-1.7 1.3-1.1 0.4-2.5 0.4zm-2.1-4.8v-2q0 0 0 0h-2.3v2zm4.1-2q0-0.6-0.3-1-0.2-0.5-0.7-0.7-0.4-0.2-1-0.2-0.6 0-1 0.2-0.5 0.3-0.8 0.7-0.2 0.4-0.2 1zm6.9 6.6l-2.9-10.9h3.5l1.5 7h0.1l1.6-7h3.4l1.6 6.9h0.1l1.4-6.9h3.5l-2.9 10.9h-3.7l-1.7-6.4h-0.1l-1.7 6.4zm22.6 0.2q-1.1 0-1.9-0.4-0.8-0.3-1.2-1-0.5-0.7-0.5-1.8 0-0.9 0.3-1.6 0.3-0.6 0.9-1 0.6-0.4 1.3-0.6 0.7-0.2 1.5-0.2 1-0.1 1.5-0.2 0.6-0.1 0.9-0.3 0.2-0.2 0.2-0.5v-0.1q0-0.5-0.3-0.8-0.4-0.3-1.1-0.3-0.6 0-1.1 0.3-0.4 0.3-0.5 0.8l-3.2-0.1q0.1-1 0.7-1.8 0.6-0.7 1.7-1.2 1-0.5 2.5-0.5 1 0 1.9 0.3 0.9 0.2 1.5 0.7 0.7 0.5 1 1.1 0.4 0.7 0.4 1.6v7.4h-3.3v-1.5h-0.1q-0.2 0.5-0.7 0.9-0.4 0.4-1.1 0.6-0.6 0.2-1.3 0.2zm1.1-2.3q0.5 0 1-0.2 0.4-0.2 0.7-0.6 0.3-0.4 0.3-1v-1q-0.2 0.1-0.4 0.1-0.2 0.1-0.5 0.1-0.2 0.1-0.5 0.1-0.2 0.1-0.5 0.1-0.5 0.1-0.8 0.3-0.4 0.1-0.5 0.4-0.2 0.2-0.2 0.6 0 0.5 0.4 0.8 0.4 0.3 1 0.3zm11-12.4v14.5h-3.5v-14.5zm5.7 0v14.5h-3.5v-14.5z"/>
</svg>